<svg width="246" height="21" viewBox="0 0 246 21" fill="none" xmlns="http://www.w3.org/2000/svg">
<g clip-path="url(#clip0)">
<path d="M0 20.4416H5.34299V13.516H13.0235V8.71285H5.34299V5.36178H15.2498V0.558594H0V20.4416Z" fill="white"/>
<path d="M30.9448 12.1756C30.9448 13.2926 30.6109 14.1863 29.8317 14.9682C29.1638 15.7501 28.2733 16.0852 27.2715 16.0852C26.2697 16.0852 25.3792 15.7501 24.7114 14.9682C24.0435 14.1863 23.5982 13.2926 23.5982 12.1756V0.558594H18.2552V12.1756C18.2552 14.6331 19.1457 16.7554 20.8154 18.4309C22.4851 20.1065 24.7114 21.0001 27.2715 21.0001C29.8317 21.0001 32.058 20.1065 33.7276 18.4309C35.3973 16.7554 36.2878 14.6331 36.2878 12.1756V0.558594H30.9448V12.1756Z" fill="white"/>
<path d="M39.0705 5.36178H44.5248V20.4416H49.9791V5.36178H55.4334V0.558594H39.0705V5.36178Z" fill="white"/>
<path d="M70.9059 12.1756C70.9059 13.2926 70.572 14.1863 69.7928 14.9682C69.1249 15.7501 68.2344 16.0852 67.2326 16.0852C66.2308 16.0852 65.3403 15.7501 64.6724 14.9682C64.0045 14.1863 63.5593 13.2926 63.5593 12.1756V0.558594H58.2163V12.1756C58.2163 14.6331 59.1068 16.7554 60.7765 18.4309C62.4462 20.1065 64.6724 21.0001 67.2326 21.0001C69.7928 21.0001 72.019 20.1065 73.6887 18.4309C75.3584 16.7554 76.2489 14.6331 76.2489 12.1756V0.558594H70.9059V12.1756Z" fill="white"/>
<path d="M94.1701 12.9575C94.3927 12.8458 94.6153 12.6224 94.9493 12.2873C95.2832 11.9522 95.6171 11.6171 95.9511 11.1703C96.285 10.7234 96.6189 10.1649 96.8416 9.49472C97.0642 8.82451 97.1755 8.04259 97.1755 7.26068C97.1755 5.36174 96.5076 3.68621 95.1719 2.34578C93.8361 1.00536 92.0551 0.335144 90.0515 0.335144H80.7013V20.2181H86.0443V13.9628H88.8271L92.2778 20.2181H97.9547L93.8361 12.9575H94.1701ZM91.1646 8.82451C90.7194 9.15961 90.2741 9.38302 89.6063 9.38302H85.933V5.36174H89.6063C90.2741 5.36174 90.7194 5.58514 91.1646 5.92025C91.6099 6.25536 91.7212 6.81387 91.7212 7.37238C91.8325 7.93089 91.6099 8.3777 91.1646 8.82451Z" fill="white"/>
<path d="M106.414 12.5107H113.984V8.26604H106.414V5.13838H116.321V0.558594H100.96V20.4416H116.544V15.8618H106.414V12.5107Z" fill="white"/>
<path d="M132.016 12.2873C133.686 12.2873 135.133 11.7288 136.357 10.6118C137.582 9.49475 138.138 8.04263 138.138 6.4788C138.138 4.91497 137.582 3.46284 136.357 2.34582C135.133 1.2288 133.686 0.670288 132.016 0.670288C130.346 0.670288 128.899 1.2288 127.675 2.34582C126.451 3.46284 125.894 4.91497 125.894 6.4788C125.894 8.04263 126.451 9.49475 127.675 10.6118C128.899 11.7288 130.346 12.2873 132.016 12.2873ZM129.79 4.24476C130.346 3.68625 131.126 3.35114 132.016 3.35114C132.907 3.35114 133.575 3.68625 134.242 4.24476C134.799 4.80327 135.133 5.58518 135.133 6.4788C135.133 7.37242 134.799 8.15433 134.242 8.71284C133.686 9.27135 132.907 9.60646 132.016 9.60646C131.126 9.60646 130.458 9.27135 129.79 8.71284C129.233 8.15433 128.899 7.37242 128.899 6.4788C128.899 5.58518 129.233 4.80327 129.79 4.24476Z" fill="white"/>
<path d="M140.031 12.0639H143.036V8.15431H147.266V5.47346H143.036V3.68622H148.49V1.00537H140.031V12.0639Z" fill="white"/>
<path d="M166.412 12.7341H169.529V14.8565L169.195 15.1916C168.972 15.415 168.527 15.6384 167.97 15.8618C167.414 16.0852 166.746 16.1969 166.078 16.1969C164.408 16.1969 163.073 15.6384 162.071 14.5213C160.958 13.4043 160.401 12.0639 160.401 10.5001C160.401 8.93624 160.958 7.48411 162.071 6.47879C163.184 5.36177 164.52 4.91496 166.078 4.91496C166.635 4.91496 167.302 5.02667 167.859 5.13837C168.416 5.25007 168.861 5.47347 169.306 5.69688C169.64 5.92028 169.974 6.14369 170.308 6.47879C170.642 6.8139 170.864 6.9256 170.976 7.0373C171.087 7.14901 171.087 7.26071 171.198 7.37241L174.426 3.90964L174.092 3.46284C173.87 3.23943 173.536 2.90432 173.091 2.45752C172.645 2.12241 172.089 1.6756 171.421 1.34049C170.753 1.00539 169.974 0.670282 169.083 0.335175C168.082 0.111771 167.08 -0.111633 166.078 -0.111633C162.961 -0.111633 160.401 0.893686 158.286 3.01603C156.171 5.13837 155.058 7.59582 155.058 10.3884C155.058 13.1809 156.171 15.7501 158.286 17.7607C160.401 19.8831 163.073 20.8884 166.078 20.8884C167.191 20.8884 168.193 20.7767 169.195 20.4416C170.197 20.1065 170.976 19.8831 171.644 19.4362C172.311 19.1011 172.868 18.6543 173.425 18.2075C173.981 17.7607 174.315 17.4256 174.538 17.2022C174.76 16.9788 174.872 16.8671 174.872 16.7554V9.38305H166.412V12.7341Z" fill="white"/>
<path d="M189.12 6.10352e-05C186.003 6.10352e-05 183.443 1.00538 181.328 3.12772C179.213 5.25006 178.1 7.70751 178.1 10.5001C178.1 13.2926 179.213 15.8618 181.328 17.8724C183.443 19.9947 186.114 21.0001 189.12 21.0001C192.236 21.0001 194.796 19.9947 196.911 17.8724C199.026 15.8618 200.139 13.2926 200.139 10.5001C200.139 7.70751 199.026 5.13836 196.911 3.12772C194.796 1.00538 192.125 6.10352e-05 189.12 6.10352e-05ZM193.015 14.5213C192.014 15.6384 190.678 16.1969 189.12 16.1969C187.561 16.1969 186.225 15.6384 185.224 14.5213C184.11 13.4043 183.665 12.0639 183.665 10.5001C183.665 8.93623 184.222 7.4841 185.224 6.47879C186.337 5.36176 187.561 4.91496 189.12 4.91496C190.678 4.91496 192.014 5.47347 193.015 6.47879C194.017 7.4841 194.574 8.93623 194.574 10.5001C194.574 12.0639 194.129 13.516 193.015 14.5213Z" fill="white"/>
<path d="M213.385 6.10352e-05C210.269 6.10352e-05 207.709 1.00538 205.594 3.12772C203.479 5.25006 202.366 7.70751 202.366 10.5001C202.366 13.2926 203.479 15.8618 205.594 17.8724C207.709 19.9947 210.38 21.0001 213.385 21.0001C216.391 21.0001 219.062 19.9947 221.177 17.8724C223.292 15.8618 224.405 13.2926 224.405 10.5001C224.405 7.70751 223.292 5.13836 221.177 3.12772C219.062 1.00538 216.502 6.10352e-05 213.385 6.10352e-05ZM217.393 14.5213C216.391 15.6384 215.055 16.1969 213.497 16.1969C211.938 16.1969 210.603 15.6384 209.601 14.5213C208.599 13.4043 208.043 12.0639 208.043 10.5001C208.043 8.93623 208.599 7.4841 209.601 6.47879C210.603 5.47347 211.938 4.91496 213.497 4.91496C215.055 4.91496 216.391 5.47347 217.393 6.47879C218.395 7.4841 218.951 8.93623 218.951 10.5001C218.951 12.0639 218.395 13.516 217.393 14.5213Z" fill="white"/>
<path d="M242.995 3.46285C240.991 1.56391 238.542 0.558594 235.537 0.558594H227.856V20.4416H235.537C238.542 20.4416 241.102 19.4363 242.995 17.5373C244.998 15.6384 246 13.2926 246 10.5001C246 7.70753 244.998 5.36178 242.995 3.46285ZM239.099 14.1863C238.097 15.1916 236.873 15.6384 235.537 15.6384H233.311V5.36178H235.537C236.984 5.36178 238.208 5.80859 239.21 6.81391C240.212 7.81923 240.657 8.93625 240.657 10.5001C240.657 11.9522 240.101 13.1809 239.099 14.1863Z" fill="white"/>
<path d="M146.932 16.6437H126.562V20.3298H146.932V16.6437Z" fill="white"/>
</g>
<defs>
<clipPath id="clip0">
<rect width="246" height="21" fill="white"/>
</clipPath>
</defs>
</svg>
