<svg xmlns="http://www.w3.org/2000/svg" width="193" height="44" fill="none" viewBox="0 0 193 44"><g clip-path="url(#clip0)"><path fill="#000" d="M73.32 3.8501H77.2L81.5 10.7701L85.8 3.8501H89.68V20.2101H86.1V9.5301L81.49 16.5201H81.4L76.85 9.6001V20.2101H73.32V3.8501Z"/><path fill="#000" d="M96.42 3.8501H108.76V7.0501H99.99V10.3701H107.7V13.5701H99.99V17.0101H108.87V20.2101H96.42V3.8501Z"/><path fill="#000" d="M115.86 3.8501H119.18L126.85 13.9201V3.8501H130.4V20.2101H127.34L119.42 9.8101V20.2101H115.87V3.8501H115.86Z"/><path fill="#000" d="M141.44 7.1701H136.46V3.8501H150.02V7.1701H145.04V20.2101H141.44V7.1701Z"/><path fill="#000" d="M154.16 12.0801V12.0301C154.16 7.38007 157.83 3.57007 162.88 3.57007C167.93 3.57007 171.55 7.33007 171.55 11.9901V12.0401C171.55 16.6901 167.88 20.5001 162.83 20.5001C157.78 20.5001 154.16 16.7301 154.16 12.0801ZM167.79 12.0801V12.0301C167.79 9.22007 165.73 6.89007 162.83 6.89007C159.93 6.89007 157.92 9.18007 157.92 11.9901V12.0401C157.92 14.8401 159.98 17.1801 162.88 17.1801C165.78 17.1801 167.79 14.8901 167.79 12.0801Z"/><path fill="#000" d="M177.56 3.8501H185.04C187.12 3.8501 188.73 4.4301 189.81 5.5101C190.72 6.4201 191.21 7.7101 191.21 9.2501V9.3001C191.21 11.9401 189.78 13.6001 187.7 14.3701L191.7 20.2101H187.49L183.98 14.9701H181.15V20.2101H177.55V3.8501H177.56ZM184.81 11.8001C186.56 11.8001 187.57 10.8601 187.57 9.4901V9.4401C187.57 7.9001 186.49 7.1001 184.74 7.1001H181.16V11.8001H184.81Z"/><path fill="#000" d="M73.08 31.4499V31.3999C73.08 26.7499 76.59 22.9399 81.61 22.9399C84.7 22.9399 86.54 23.9699 88.06 25.4599L85.77 28.0999C84.51 26.9499 83.22 26.2499 81.59 26.2499C78.83 26.2499 76.84 28.5399 76.84 31.3499V31.3999C76.84 34.2099 78.78 36.5399 81.59 36.5399C83.46 36.5399 84.61 35.7899 85.89 34.6199L88.18 36.9299C86.5 38.7299 84.63 39.8499 81.47 39.8499C76.66 39.8699 73.08 36.1499 73.08 31.4499Z"/><path fill="#000" d="M99.97 23.1101H103.29L110.3 39.5901H106.54L105.04 35.9201H98.12L96.62 39.5901H92.95L99.97 23.1101ZM103.75 32.7401L101.58 27.4301L99.41 32.7401H103.75Z"/><path fill="#000" d="M115.86 23.22H119.18L126.85 33.29V23.22H130.4V39.58H127.34L119.42 29.18V39.58H115.87V23.22H115.86Z"/><path fill="#000" d="M141.54 23.1101H144.86L151.87 39.5901H148.11L146.61 35.9201H139.69L138.19 39.5901H134.52L141.54 23.1101ZM145.32 32.7401L143.15 27.4301L140.98 32.7401H145.32Z"/><path fill="#000" d="M157.2 23.22H163.58C168.72 23.22 172.28 26.75 172.28 31.35V31.4C172.28 36.01 168.73 39.58 163.58 39.58H157.2V23.22ZM160.8 26.47V36.33H163.58C166.53 36.33 168.51 34.34 168.51 31.44V31.39C168.51 28.49 166.52 26.46 163.58 26.46H160.8V26.47Z"/><path fill="#000" d="M182.73 23.1101H186.05L193.06 39.5901H189.3L187.8 35.9201H180.88L179.38 39.5901H175.71L182.73 23.1101ZM186.52 32.7401L184.35 27.4301L182.18 32.7401H186.52Z"/><path fill="#D72328" d="M0 8.8L15.54 17.6V0L0 8.8Z"/><path fill="#E69B27" d="M15.54 17.6L31.07 26.4V8.80005L15.54 17.6Z"/><path fill="#E69B27" d="M29.36 29.3399V41.0599L19.01 35.1999L29.36 29.3399ZM31.07 26.3999L15.53 35.1999L31.07 43.9999V26.3999Z"/><path fill="#A41E23" d="M13.82 20.5401V32.2601L3.48 26.4001L13.82 20.5401ZM15.54 17.6001L0 26.4001L15.54 35.2001V17.6001Z"/><path fill="#A41E23" d="M15.54 17.6L0 8.80005V26.4L15.54 17.6Z"/><path fill="#FAAC2A" d="M31.07 8.8L15.54 0V17.6L31.07 8.8Z"/><path fill="#3EBEB1" d="M62.14 8.8L46.61 17.6V0L62.14 8.8Z"/><path fill="#105781" d="M46.61 17.6L31.07 26.4V8.80005L46.61 17.6Z"/><path fill="#105781" d="M32.78 29.3399L43.13 35.1999L32.78 41.0599V29.3399ZM31.07 26.3999V43.9999L46.61 35.1999L31.07 26.3999Z"/><path fill="#30A999" d="M48.32 20.5401L58.67 26.4001L48.32 32.2601V20.5401ZM46.61 17.6001V35.2001L62.15 26.4001L46.61 17.6001Z"/><path fill="#30A999" d="M46.61 17.6L62.14 8.80005V26.4L46.61 17.6Z"/><path fill="#0B619B" d="M31.07 8.8L46.61 0V17.6L31.07 8.8Z"/></g><defs><clipPath id="clip0"><rect width="193" height="44" fill="#fff"/></clipPath></defs></svg>