<svg xmlns="http://www.w3.org/2000/svg" width="551" height="47" fill="none" viewBox="0 0 551 47"><g clip-path="url(#clip0)"><path fill="#000" d="M0 45.7501H11.9674V30.2501H29.1706V19.5001H11.9674V12.0001H34.157V1.25012H0V45.7501Z"/><path fill="#000" d="M69.3113 27.2501C69.3113 29.7501 68.5633 31.7501 66.8181 33.5001C65.3222 35.2501 63.3276 36.0001 61.0837 36.0001C58.8398 36.0001 56.8452 35.2501 55.3493 33.5001C53.8534 31.7501 52.8561 29.7501 52.8561 27.2501V1.25012H40.8887V27.2501C40.8887 32.7501 42.8832 37.5001 46.6231 41.2501C50.3629 45.0001 55.3493 47.0001 61.0837 47.0001C66.8181 47.0001 71.8045 45.0001 75.5443 41.2501C79.2841 37.5001 81.2787 32.7501 81.2787 27.2501V1.25012H69.3113V27.2501Z"/><path fill="#000" d="M87.5117 12.0001H99.7285V45.7501H111.945V12.0001H124.162V1.25012H87.5117V12.0001Z"/><path fill="#000" d="M158.818 27.2501C158.818 29.7501 158.07 31.7501 156.324 33.5001C154.829 35.2501 152.834 36.0001 150.59 36.0001C148.346 36.0001 146.352 35.2501 144.856 33.5001C143.36 31.7501 142.362 29.7501 142.362 27.2501V1.25012H130.395V27.2501C130.395 32.7501 132.39 37.5001 136.129 41.2501C139.869 45.0001 144.856 47.0001 150.59 47.0001C156.324 47.0001 161.311 45.0001 165.051 41.2501C168.791 37.5001 170.785 32.7501 170.785 27.2501V1.25012H158.818V27.2501Z"/><path fill="#000" d="M210.926 29C211.424 28.75 211.923 28.25 212.671 27.5C213.419 26.75 214.167 26 214.915 25C215.663 24 216.411 22.75 216.909 21.25C217.408 19.75 217.657 18 217.657 16.25C217.657 12 216.161 8.25 213.17 5.25C210.178 2.25 206.189 0.75 201.701 0.75H180.758V45.25H192.725V31.25H198.958L206.687 45.25H219.403L210.178 29H210.926ZM204.194 19.75C203.197 20.5 202.199 21 200.704 21H192.476V12H200.704C202.199 12 203.197 12.5 204.194 13.25C205.191 14 205.441 15.25 205.441 16.5C205.69 17.75 205.191 18.75 204.194 19.75Z"/><path fill="#000" d="M238.351 28.0001H255.305V18.5001H238.351V11.5001H260.541V1.25012H226.134V45.7501H261.039V35.5001H238.351V28.0001Z"/><path fill="#000" d="M295.695 27.5001C299.434 27.5001 302.676 26.2501 305.418 23.7501C308.161 21.2501 309.407 18.0001 309.407 14.5001C309.407 11.0001 308.161 7.75012 305.418 5.25012C302.676 2.75012 299.434 1.50012 295.695 1.50012C291.955 1.50012 288.714 2.75012 285.971 5.25012C283.229 7.75012 281.982 11.0001 281.982 14.5001C281.982 18.0001 283.229 21.2501 285.971 23.7501C288.714 26.2501 291.955 27.5001 295.695 27.5001ZM290.708 9.50012C291.955 8.25012 293.7 7.50012 295.695 7.50012C297.689 7.50012 299.185 8.25012 300.681 9.50012C301.928 10.7501 302.676 12.5001 302.676 14.5001C302.676 16.5001 301.928 18.2501 300.681 19.5001C299.434 20.7501 297.689 21.5001 295.695 21.5001C293.7 21.5001 292.204 20.7501 290.708 19.5001C289.462 18.2501 288.714 16.5001 288.714 14.5001C288.714 12.5001 289.462 10.7501 290.708 9.50012Z"/><path fill="#000" d="M313.646 27.0001H320.378V18.2501H329.852V12.2501H320.378V8.25012H332.594V2.25012H313.646V27.0001Z"/><path fill="#000" d="M372.735 28.5H379.717V33.25L378.969 34C378.47 34.5 377.473 35 376.226 35.5C374.979 36 373.483 36.25 371.988 36.25C368.248 36.25 365.256 35 363.012 32.5C360.519 30 359.272 27 359.272 23.5C359.272 20 360.519 16.75 363.012 14.5C365.505 12 368.497 11 371.988 11C373.234 11 374.73 11.25 375.977 11.5C377.223 11.75 378.221 12.25 379.218 12.75C379.966 13.25 380.714 13.75 381.462 14.5C382.21 15.25 382.708 15.5 382.958 15.75C383.207 16 383.207 16.25 383.456 16.5L390.687 8.75L389.939 7.75C389.44 7.25 388.692 6.5 387.695 5.5C386.698 4.75 385.451 3.75 383.955 3C382.459 2.25 380.714 1.5 378.719 0.75C376.475 0.25 374.231 -0.25 371.988 -0.25C365.007 -0.25 359.272 2 354.535 6.75C349.798 11.5 347.305 17 347.305 23.25C347.305 29.5 349.798 35.25 354.535 39.75C359.272 44.5 365.256 46.75 371.988 46.75C374.481 46.75 376.725 46.5 378.969 45.75C381.212 45 382.958 44.5 384.454 43.5C385.95 42.75 387.196 41.75 388.443 40.75C389.689 39.75 390.437 39 390.936 38.5C391.435 38 391.684 37.75 391.684 37.5V21H372.735V28.5Z"/><path fill="#000" d="M423.597 0C416.616 0 410.881 2.25 406.144 7C401.407 11.75 398.914 17.25 398.914 23.5C398.914 29.75 401.407 35.5 406.144 40C410.881 44.75 416.865 47 423.597 47C430.578 47 436.312 44.75 441.049 40C445.786 35.5 448.28 29.75 448.28 23.5C448.28 17.25 445.786 11.5 441.049 7C436.312 2.25 430.328 0 423.597 0ZM432.323 32.5C430.079 35 427.087 36.25 423.597 36.25C420.106 36.25 417.114 35 414.871 32.5C412.377 30 411.38 27 411.38 23.5C411.38 20 412.627 16.75 414.871 14.5C417.364 12 420.106 11 423.597 11C427.087 11 430.079 12.25 432.323 14.5C434.567 16.75 435.814 20 435.814 23.5C435.814 27 434.816 30.25 432.323 32.5Z"/><path fill="#000" d="M477.949 0C470.968 0 465.234 2.25 460.496 7C455.759 11.75 453.266 17.25 453.266 23.5C453.266 29.75 455.759 35.5 460.496 40C465.234 44.75 471.217 47 477.949 47C484.681 47 490.664 44.75 495.401 40C500.138 35.5 502.632 29.75 502.632 23.5C502.632 17.25 500.138 11.5 495.401 7C490.664 2.25 484.93 0 477.949 0ZM486.924 32.5C484.681 35 481.689 36.25 478.198 36.25C474.708 36.25 471.716 35 469.472 32.5C467.228 30 465.981 27 465.981 23.5C465.981 20 467.228 16.75 469.472 14.5C471.716 12.25 474.708 11 478.198 11C481.689 11 484.681 12.25 486.924 14.5C489.168 16.75 490.415 20 490.415 23.5C490.415 27 489.168 30.25 486.924 32.5Z"/><path fill="#000" d="M544.269 7.75012C539.781 3.50012 534.296 1.25012 527.564 1.25012H510.361V45.7501H527.564C534.296 45.7501 540.03 43.5001 544.269 39.2501C548.756 35.0001 551 29.7501 551 23.5001C551 17.2501 548.756 12.0001 544.269 7.75012ZM535.542 31.7501C533.298 34.0001 530.556 35.0001 527.564 35.0001H522.578V12.0001H527.564C530.805 12.0001 533.548 13.0001 535.792 15.2501C538.035 17.5001 539.033 20.0001 539.033 23.5001C539.033 26.7501 537.786 29.5001 535.542 31.7501Z"/><path fill="#000" d="M329.104 37.2501H283.479V45.5001H329.104V37.2501Z"/></g><defs><clipPath id="clip0"><rect width="551" height="47" fill="#fff"/></clipPath></defs></svg>